<svg xmlns="http://www.w3.org/2000/svg" viewBox="0 0 400 400" width="400" height="400">
  <defs>
    <style>
      @import url('https://fonts.googleapis.com/css2?family=Space+Mono:wght@700&amp;family=Syne:wght@800&amp;display=swap');
    </style>

    <!-- Deep dark bg -->
    <linearGradient id="bgGrad" x1="0%" y1="0%" x2="100%" y2="100%">
      <stop offset="0%" style="stop-color:#0d0d0d"/>
      <stop offset="100%" style="stop-color:#1a0a0a"/>
    </linearGradient>

    <!-- Reddit orange glow -->
    <radialGradient id="glowOrange" cx="50%" cy="50%" r="50%">
      <stop offset="0%" style="stop-color:#ff4500;stop-opacity:0.35"/>
      <stop offset="100%" style="stop-color:#ff4500;stop-opacity:0"/>
    </radialGradient>

    <!-- Scout red accent -->
    <linearGradient id="redLine" x1="0%" y1="0%" x2="100%" y2="0%">
      <stop offset="0%" style="stop-color:#ff4500"/>
      <stop offset="100%" style="stop-color:#ff8c42"/>
    </linearGradient>

    <!-- Signal pulse filter -->
    <filter id="glow">
      <feGaussianBlur stdDeviation="3.5" result="blur"/>
      <feMerge>
        <feMergeNode in="blur"/>
        <feMergeNode in="SourceGraphic"/>
      </feMerge>
    </filter>

    <filter id="softGlow">
      <feGaussianBlur stdDeviation="6" result="blur"/>
      <feMerge>
        <feMergeNode in="blur"/>
        <feMergeNode in="SourceGraphic"/>
      </feMerge>
    </filter>
  </defs>

  <!-- Background -->
  <rect width="400" height="400" fill="url(#bgGrad)" rx="24"/>
  <ellipse cx="200" cy="200" rx="160" ry="130" fill="url(#glowOrange)" opacity="0.7"/>

  <!-- Subtle grid -->
  <g stroke="#ffffff" stroke-width="0.3" opacity="0.04">
    <line x1="0" y1="50" x2="400" y2="50"/>
    <line x1="0" y1="100" x2="400" y2="100"/>
    <line x1="0" y1="150" x2="400" y2="150"/>
    <line x1="0" y1="200" x2="400" y2="200"/>
    <line x1="0" y1="250" x2="400" y2="250"/>
    <line x1="0" y1="300" x2="400" y2="300"/>
    <line x1="0" y1="350" x2="400" y2="350"/>
    <line x1="50" y1="0" x2="50" y2="400"/>
    <line x1="100" y1="0" x2="100" y2="400"/>
    <line x1="150" y1="0" x2="150" y2="400"/>
    <line x1="200" y1="0" x2="200" y2="400"/>
    <line x1="250" y1="0" x2="250" y2="400"/>
    <line x1="300" y1="0" x2="300" y2="400"/>
    <line x1="350" y1="0" x2="350" y2="400"/>
  </g>

  <!-- === ICON: Magnifier with stylized eye === -->

  <!-- Magnifier ring (back layer) -->
  <circle cx="200" cy="195" r="80" fill="none" stroke="#ff4500" stroke-width="3.5" opacity="0.18" filter="url(#softGlow)"/>
  <circle cx="200" cy="195" r="68" fill="none" stroke="#ff4500" stroke-width="1" stroke-dasharray="4 6" opacity="0.25"/>

  <!-- Magnifier handle -->
  <line x1="253" y1="248" x2="282" y2="278" stroke="url(#redLine)" stroke-width="6" stroke-linecap="round" filter="url(#glow)"/>
  <line x1="248" y1="243" x2="255" y2="250" stroke="#ff8c42" stroke-width="8" stroke-linecap="round" opacity="0.5"/>

  <!-- Magnifier lens circle -->
  <circle cx="200" cy="195" r="62" fill="#140808" stroke="url(#redLine)" stroke-width="3" filter="url(#glow)"/>
  <circle cx="200" cy="195" r="62" fill="none" stroke="#ff4500" stroke-width="1" opacity="0.3"/>

  <!-- Eye shape (almond / lenticular) -->
  <path d="M138 195 Q170 150 200 148 Q230 150 262 195 Q230 240 200 242 Q170 240 138 195 Z"
        fill="none" stroke="#ff4500" stroke-width="3" filter="url(#glow)"/>
  <path d="M138 195 Q170 150 200 148 Q230 150 262 195 Q230 240 200 242 Q170 240 138 195 Z"
        fill="#ff4500" opacity="0.07"/>

  <!-- Iris -->
  <circle cx="200" cy="195" r="30" fill="none" stroke="#ff4500" stroke-width="2.5" opacity="0.9" filter="url(#glow)"/>
  <circle cx="200" cy="195" r="30" fill="#ff4500" opacity="0.12"/>

  <!-- Inner iris ring -->
  <circle cx="200" cy="195" r="22" fill="none" stroke="#ff8c42" stroke-width="1.2" opacity="0.5" stroke-dasharray="3 4"/>

  <!-- Pupil -->
  <circle cx="200" cy="195" r="14" fill="#ff4500" opacity="0.95" filter="url(#glow)"/>
  <circle cx="200" cy="195" r="14" fill="#1a0000"/>

  <!-- Pupil crosshair -->
  <line x1="200" y1="182" x2="200" y2="208" stroke="#ff4500" stroke-width="1.2" opacity="0.7"/>
  <line x1="187" y1="195" x2="213" y2="195" stroke="#ff4500" stroke-width="1.2" opacity="0.7"/>

  <!-- Glint -->
  <circle cx="207" cy="188" r="4" fill="white" opacity="0.18"/>
  <circle cx="209" cy="186" r="2" fill="white" opacity="0.35"/>

  <!-- Eyelash scan lines (top) -->
  <line x1="200" y1="148" x2="200" y2="163" stroke="#ff4500" stroke-width="1.5" stroke-linecap="round" opacity="0.4"/>
  <line x1="182" y1="152" x2="185" y2="167" stroke="#ff4500" stroke-width="1" stroke-linecap="round" opacity="0.3"/>
  <line x1="218" y1="152" x2="215" y2="167" stroke="#ff4500" stroke-width="1" stroke-linecap="round" opacity="0.3"/>

  <!-- Eyelash scan lines (bottom) -->
  <line x1="200" y1="242" x2="200" y2="227" stroke="#ff4500" stroke-width="1.5" stroke-linecap="round" opacity="0.4"/>
  <line x1="182" y1="238" x2="185" y2="223" stroke="#ff4500" stroke-width="1" stroke-linecap="round" opacity="0.3"/>
  <line x1="218" y1="238" x2="215" y2="223" stroke="#ff4500" stroke-width="1" stroke-linecap="round" opacity="0.3"/>

  <!-- Corner brackets — techy detail -->
  <path d="M30 30 L30 50 M30 30 L50 30" stroke="#ff4500" stroke-width="2" fill="none" opacity="0.4" stroke-linecap="round"/>
  <path d="M370 30 L370 50 M370 30 L350 30" stroke="#ff4500" stroke-width="2" fill="none" opacity="0.4" stroke-linecap="round"/>
  <path d="M30 370 L30 350 M30 370 L50 370" stroke="#ff4500" stroke-width="2" fill="none" opacity="0.4" stroke-linecap="round"/>
  <path d="M370 370 L370 350 M370 370 L350 370" stroke="#ff4500" stroke-width="2" fill="none" opacity="0.4" stroke-linecap="round"/>
</svg>
